<?xml version="1.0" encoding="UTF-8" standalone="no"?>
<!-- Created with Inkscape (http://www.inkscape.org/) -->

<svg
  version="1.1"
  id="svg1"
  xml:space="preserve"
  width="48"
  height="48"
  xmlns:inkscape="http://www.inkscape.org/namespaces/inkscape"
  xmlns:sodipodi="http://sodipodi.sourceforge.net/DTD/sodipodi-0.dtd"
  xmlns="http://www.w3.org/2000/svg"
  xmlns:svg="http://www.w3.org/2000/svg"
>
  <defs
    id="defs1"
  /><sodipodi:namedview
    id="namedview1"
    pagecolor="#ffffff"
    bordercolor="#000000"
    borderopacity="0.25"
    inkscape:showpageshadow="2"
    inkscape:pageopacity="0.0"
    inkscape:pagecheckerboard="0"
    inkscape:deskcolor="#d1d1d1"
  /><inkscape:clipboard
    min="461.99989,531"
    max="509.99989,579"
    geom-min="461.99989,531"
    geom-max="509.99989,579"
  /><g
    id="layer1"
    transform="matrix(3.7795276,0,0,3.7795276,-461.99989,-531.00001)"
  ><path
      id="path741"
      d="m 128.58747,140.49375 -6.35,6.35 6.35,6.35 6.35,-6.35 z"
      style="fill: #ed1c24; fill-opacity: 1; fill-rule: nonzero; stroke: none; stroke-width: 0.352778"
    /><path
      id="path742"
      d="m 125.58802,148.03794 h -1.02482 v -2.66665 h 1.0093 c 0.56621,0 0.84137,0.23319 0.84137,0.63042 0,0.42792 -0.23318,0.58455 -0.50059,0.64946 v 0.008 c 0.33232,0.0572 0.54293,0.27129 0.54293,0.63042 0,0.52705 -0.35948,0.74859 -0.86819,0.74859"
      style="fill: #ffffff; fill-opacity: 1; fill-rule: nonzero; stroke: none; stroke-width: 0.352778"
    /><path
      id="path743"
      d="m 127.82705,148.03797 c -0.008,-0.0917 -0.0229,-0.18344 -0.0229,-0.27517 -0.19897,0.22155 -0.3556,0.32103 -0.59655,0.32103 -0.35172,0 -0.60431,-0.25223 -0.60431,-0.63429 0,-0.44309 0.33267,-0.67981 1.02482,-0.67981 h 0.17604 v -0.061 c 0,-0.12629 -0.10336,-0.27164 -0.37465,-0.27164 -0.21414,0 -0.42827,0.096 -0.57362,0.18733 l -0.0233,-0.49283 c 0.16475,-0.061 0.4131,-0.12982 0.74577,-0.12982 0.69991,0 0.8375,0.32843 0.8375,0.7373 v 0.85972 c 0,0.16052 0.0116,0.32068 0.0229,0.43921 z"
      style="fill: #ffffff; fill-opacity: 1; fill-rule: nonzero; stroke: none; stroke-width: 0.352778"
    /><path
      id="path744"
      d="m 130.62952,148.03797 h -0.68862 v -1.19592 c 0,-0.19085 -0.0572,-0.28257 -0.18697,-0.28257 -0.17216,0 -0.24871,0.17956 -0.24871,0.38594 v 1.09255 h -0.68827 v -2.86526 h 0.68827 v 0.88265 c 0,0.0801 -0.008,0.1718 -0.0152,0.24447 h 0.0113 c 0.11465,-0.20249 0.29069,-0.29809 0.52387,-0.29809 0.34043,0 0.60431,0.20249 0.60431,0.6417 z"
      style="fill: #ffffff; fill-opacity: 1; fill-rule: nonzero; stroke: none; stroke-width: 0.352778"
    /><path
      id="path745"
      d="m 132.15564,148.03797 v -1.19592 c 0,-0.19085 -0.0575,-0.28257 -0.18732,-0.28257 -0.17216,0 -0.24871,0.17956 -0.24871,0.38594 v 1.09255 h -0.68827 v -1.58538 c 0,-0.14888 -0.0113,-0.31327 -0.0229,-0.40499 h 0.64629 c 0.0116,0.0804 0.0152,0.22154 0.0152,0.33231 h 0.008 c 0.0381,-0.10689 0.17215,-0.37817 0.56197,-0.37817 0.34043,0 0.60431,0.20249 0.60431,0.6417 v 1.39453 z"
      style="fill: #ffffff; fill-opacity: 1; fill-rule: nonzero; stroke: none; stroke-width: 0.352778"
    /><path
      id="path746"
      d="m 127.21542,147.40378 c 0,0.17568 0.0956,0.24447 0.23707,0.24447 0.3175,0 0.35172,-0.32102 0.35172,-0.50799 v -0.0649 h -0.0804 c -0.30586,0 -0.50835,0.0956 -0.50835,0.32844"
      style="fill: #ed1c24; fill-opacity: 1; fill-rule: nonzero; stroke: none; stroke-width: 0.352778"
    /><path
      id="path747"
      d="m 125.72565,146.14317 c 0,-0.19861 -0.12241,-0.29034 -0.29069,-0.29034 h -0.18344 v 0.58456 h 0.14146 c 0.17604,0 0.33267,-0.0692 0.33267,-0.29422"
      style="fill: #ed1c24; fill-opacity: 1; fill-rule: nonzero; stroke: none; stroke-width: 0.352778"
    /><path
      id="path748"
      d="m 125.47319,146.91861 h -0.22154 v 0.62265 h 0.1912 c 0.20638,0 0.32491,-0.10301 0.32491,-0.3055 0,-0.19897 -0.10689,-0.31715 -0.29457,-0.31715"
      style="fill: #ed1c24; fill-opacity: 1; fill-rule: nonzero; stroke: none; stroke-width: 0.352778"
    /></g>
</svg>
