<?xml version="1.0" encoding="UTF-8" standalone="no"?>
<!-- Created with Inkscape (http://www.inkscape.org/) -->

<svg
  version="1.1"
  id="svg1"
  xml:space="preserve"
  width="39.949333"
  height="39.949333"
  xmlns:inkscape="http://www.inkscape.org/namespaces/inkscape"
  xmlns:sodipodi="http://sodipodi.sourceforge.net/DTD/sodipodi-0.dtd"
  xmlns="http://www.w3.org/2000/svg"
  xmlns:svg="http://www.w3.org/2000/svg"
>
  <defs
    id="defs1"
  /><sodipodi:namedview
    id="namedview1"
    pagecolor="#ffffff"
    bordercolor="#000000"
    borderopacity="0.25"
    inkscape:showpageshadow="2"
    inkscape:pageopacity="0.0"
    inkscape:pagecheckerboard="0"
    inkscape:deskcolor="#d1d1d1"
  /><inkscape:clipboard
    min="9984.1857,521.3488"
    max="10024.135,561.29814"
    geom-min="9984.1857,521.3488"
    geom-max="10024.135,561.29814"
    page-min="9140.1603,0"
    page-max="10262.68,793.70136"
  /><g
    id="g604"
    transform="translate(-9984.1857,-521.3488)"
  ><path
      id="path737"
      d="m 0,0 c 0,8.181 -6.61,14.791 -14.791,14.791 -8.181,0 -14.791,-6.61 -14.791,-14.791 0,-8.181 6.61,-14.791 14.791,-14.791 C -6.61,-14.791 0,-8.181 0,0"
      style="fill: #ffffff; fill-opacity: 1; fill-rule: nonzero; stroke: none"
      transform="matrix(1.3333333,0,0,-1.3333333,10023.818,541.32347)"
    /><path
      id="path738"
      d="m 0,0 c 0,8.263 -6.719,14.981 -14.981,14.981 -8.263,0 -14.981,-6.718 -14.981,-14.981 0,-8.263 6.718,-14.981 14.981,-14.981 C -6.719,-14.981 0,-8.263 0,0 m -2.438,-2.032 c 0,-1.95 -1.409,-3.251 -3.793,-3.251 -0.867,0 -1.707,0.109 -2.736,0.325 l 0.135,2.195 c 0.813,-0.353 1.491,-0.434 2.195,-0.434 0.84,0 1.409,0.271 1.409,0.867 0,0.569 -0.298,0.894 -1.788,1.409 -1.436,0.488 -2.141,1.49 -2.141,2.926 0,1.788 1.436,2.925 3.603,2.925 0.84,0 1.653,-0.108 2.601,-0.325 l -0.108,-1.95 c -0.623,0.298 -1.409,0.488 -2.032,0.488 -0.894,0 -1.3,-0.38 -1.3,-0.922 0,-0.514 0.325,-0.866 1.652,-1.381 1.68,-0.65 2.303,-1.517 2.303,-2.872 m -8.1,0.515 c 0,-2.384 -1.328,-3.766 -3.793,-3.766 -2.601,0 -3.82,1.355 -3.82,3.387 v 6.718 h 2.709 v -6.393 c 0,-1.111 0.38,-1.626 1.165,-1.626 0.867,0 1.219,0.488 1.219,1.815 v 6.204 h 2.52 z m -9.075,-0.84 c 0,-1.896 -1.274,-2.817 -3.82,-2.817 h -3.224 v 9.996 h 3.468 c 2.465,0 3.494,-1.084 3.494,-2.519 0,-1.274 -0.596,-1.924 -1.788,-2.303 1.246,-0.19 1.87,-1.029 1.87,-2.357 m -2.655,4.172 c 0,0.813 -0.515,1.138 -1.301,1.138 h -0.514 V 0.704 h 0.514 c 0.786,0 1.301,0.461 1.301,1.111 m 0.135,-3.982 c 0,0.785 -0.298,1.219 -1.138,1.219 h -0.812 v -2.411 h 0.758 c 0.786,0 1.192,0.433 1.192,1.192"
      style="fill: #a0148e; fill-opacity: 1; fill-rule: nonzero; stroke: none"
      transform="matrix(1.3333333,0,0,-1.3333333,10024.135,541.32347)"
    /></g>
</svg>
