<?xml version="1.0" encoding="UTF-8" standalone="no"?>
<!-- Created with Inkscape (http://www.inkscape.org/) -->

<svg
  version="1.1"
  id="svg1"
  xml:space="preserve"
  width="39.949333"
  height="39.949333"
  xmlns:inkscape="http://www.inkscape.org/namespaces/inkscape"
  xmlns:sodipodi="http://sodipodi.sourceforge.net/DTD/sodipodi-0.dtd"
  xmlns="http://www.w3.org/2000/svg"
  xmlns:svg="http://www.w3.org/2000/svg"
>
  <defs
    id="defs1"
  /><sodipodi:namedview
    id="namedview1"
    pagecolor="#ffffff"
    bordercolor="#000000"
    borderopacity="0.25"
    inkscape:showpageshadow="2"
    inkscape:pageopacity="0.0"
    inkscape:pagecheckerboard="0"
    inkscape:deskcolor="#d1d1d1"
  /><inkscape:clipboard
    min="9984.1857,339.70466"
    max="10024.135,379.654"
    geom-min="9984.1857,339.70466"
    geom-max="10024.135,379.654"
    page-min="9140.1603,0"
    page-max="10262.68,793.70136"
  /><g
    id="g604"
    transform="translate(-9984.1857,-339.70466)"
  ><path
      id="path731"
      d="m 0,0 c 0,8.181 -6.61,14.791 -14.791,14.791 -8.182,0 -14.792,-6.61 -14.792,-14.791 0,-8.181 6.61,-14.791 14.792,-14.791 C -6.61,-14.791 0,-8.181 0,0"
      style="fill: #ffffff; fill-opacity: 1; fill-rule: nonzero; stroke: none"
      transform="matrix(1.3333333,0,0,-1.3333333,10023.887,359.67933)"
    /><path
      id="path732"
      d="m 0,0 c 0,8.263 -6.718,14.981 -14.981,14.981 -8.263,0 -14.981,-6.718 -14.981,-14.981 0,-8.263 6.718,-14.981 14.981,-14.981 C -6.718,-14.981 0,-8.263 0,0 m -5.147,-3.982 c 0,-3.631 -3.522,-7.857 -9.455,-7.857 -3.305,0 -7.125,1.49 -9.211,3.36 v 4.713 c 1.978,-2.844 5.581,-5.038 9.211,-5.038 2.222,0 4.01,1.273 4.01,2.627 0,5.12 -13.41,1.951 -13.41,10.782 0,4.633 4.524,7.125 8.588,7.125 3.386,0 6.42,-1.111 8.831,-2.98 V 4.822 c -2.086,2.249 -5.228,4.226 -8.913,4.226 -2.086,0 -3.278,-1.11 -3.278,-2.411 0,-5.472 13.627,-1.625 13.627,-10.619"
      style="fill: #00a063; fill-opacity: 1; fill-rule: nonzero; stroke: none"
      transform="matrix(1.3333333,0,0,-1.3333333,10024.135,359.67933)"
    /></g>
</svg>
